<?xml version="1.0" encoding="UTF-8" standalone="no"?>
<svg
   xmlns:dc="http://purl.org/dc/elements/1.1/"
   xmlns:cc="http://creativecommons.org/ns#"
   xmlns:rdf="http://www.w3.org/1999/02/22-rdf-syntax-ns#"
   xmlns:svg="http://www.w3.org/2000/svg"
   xmlns="http://www.w3.org/2000/svg"
   xmlns:sodipodi="http://sodipodi.sourceforge.net/DTD/sodipodi-0.dtd"
   xmlns:inkscape="http://www.inkscape.org/namespaces/inkscape"
   version="1.1"
   id="svg10"
   width="64"
   height="64"
   viewBox="0 0 64 64"
   sodipodi:docname="pac.svg"
   inkscape:version="1.0.1 (3bc2e813f5, 2020-09-07)">
  <metadata
     id="metadata16">
    <rdf:RDF>
      <cc:Work
         rdf:about="">
        <dc:format>image/svg+xml</dc:format>
        <dc:type
           rdf:resource="http://purl.org/dc/dcmitype/StillImage" />
        <dc:title></dc:title>
      </cc:Work>
    </rdf:RDF>
  </metadata>
  <defs
     id="defs14" />
  <sodipodi:namedview
     pagecolor="#ffffff"
     bordercolor="#666666"
     borderopacity="1"
     objecttolerance="10"
     gridtolerance="10"
     guidetolerance="10"
     inkscape:pageopacity="0"
     inkscape:pageshadow="2"
     inkscape:window-width="1920"
     inkscape:window-height="1027"
     id="namedview12"
     showgrid="false"
     inkscape:zoom="3.359375"
     inkscape:cx="93.655604"
     inkscape:cy="50.172774"
     inkscape:window-x="980"
     inkscape:window-y="1120"
     inkscape:window-maximized="1"
     inkscape:current-layer="g18" />
  <g
     inkscape:groupmode="layer"
     inkscape:label="Image"
     id="g18">
    <g
       inkscape:groupmode="layer"
       id="layer1"
       inkscape:label="Image 1" />
    <g
       inkscape:groupmode="layer"
       id="layer2"
       inkscape:label="Image 2">
      <ellipse
         style="fill:#faed3f;fill-opacity:1;stroke-width:1.11048"
         id="path42"
         cx="31.999998"
         cy="32.000004"
         rx="29.767443"
         ry="30.065117" />
    </g>
    <path
       style="fill:#000000;stroke-width:0.336394"
       d="M 26.737761,58.403047 C 14.279939,55.777897 5.41408,45.01634 5.422437,32.53009 5.430137,21.03126 12.557073,11.086362 23.434796,7.3957237 40.816401,1.4984197 58.894211,14.218559 58.875221,32.332765 c -0.008,7.14621 -2.27276,12.891144 -7.09764,18.000252 -6.51964,6.9037 -16.02968,9.96867 -25.03982,8.07003 z m 9.47452,-2.97161 c 11.90333,-2.1345 20.29814,-12.67925 19.51191,-24.508933 C 54.870211,18.073562 44.031151,8.5342127 31.013141,9.1745407 24.86465,9.4769717 19.789956,11.666239 15.530559,15.853863 8.19346,23.067331 6.47303,33.46216 11.062322,42.850924 c 1.302603,2.664862 2.003157,3.61026 4.465115,6.025684 3.873061,3.799859 7.238792,5.573729 12.394634,6.532439 3.08869,0.57433 5.18072,0.57998 8.29021,0.0224 z m -9.0265,-5.538288 c -2.867921,-0.74297 -3.979473,-1.270648 -6.730369,-3.19506 -4.08112,-2.854985 -7.252696,-8.42204 -7.252696,-12.73063 0,-1.218975 -0.108223,-1.436153 -0.761346,-1.527828 -0.539614,-0.07574 -0.791888,-0.368158 -0.866219,-1.004048 -0.136426,-1.167107 0.900439,-1.738315 3.102311,-1.709058 2.063466,0.02742 3.216455,0.939902 2.60783,2.063854 -0.211337,0.390278 -0.628445,0.709599 -0.926905,0.709599 -0.964487,0 -0.372263,3.69504 1.047163,6.533534 3.989701,7.978396 14.533861,11.184305 22.939371,6.974628 2.381,-1.192462 5.50331,-4.350217 6.56268,-6.637195 0.4725,-1.020011 0.99541,-1.854566 1.16203,-1.854566 0.46235,0 -0.0598,-1.114307 -0.75325,-1.607489 -0.74728,-0.531478 -0.79598,-1.505971 -0.10363,-2.073861 1.0496,-0.860924 4.62381,0.231617 5.14443,1.572518 0.26962,0.69441 -0.33524,1.606547 -1.06741,1.60967 -0.39622,0.0016 -0.78348,0.570893 -1.2179,1.790073 -1.94416,5.456229 -7.48184,10.140327 -13.45327,11.379597 -2.63815,0.54751 -6.67022,0.42195 -9.43282,-0.293738 z M 38.325651,30.40981 c -2.27504,-2.405616 -1.65316,-10.924134 1.03258,-14.144374 0.80304,-0.962855 1.1917,-1.17256 2.02069,-1.090293 2.56859,0.254898 3.49038,4.617723 2.21193,10.469086 -0.99431,4.55095 -3.40484,6.73273 -5.2652,4.765581 z M 24.410846,28.630533 c -2.026275,-2.545927 -1.031759,-11.903812 1.534645,-14.440268 1.19814,-1.184152 2.75159,-0.93527 3.65201,0.585094 0.9581,1.617773 0.99574,7.617378 0.0654,10.417431 -1.27307,3.831374 -3.68317,5.408926 -5.252015,3.437743 z"
       id="path36" />
  </g>
</svg>
