<?xml version="1.0" encoding="utf-8"?>
<!-- Generator: Adobe Illustrator 24.3.0, SVG Export Plug-In . SVG Version: 6.00 Build 0)  -->
<svg version="1.1"
	 id="svg3209" inkscape:version="0.48.2 r9819" sodipodi:docname="blinky.svg" xmlns:cc="http://creativecommons.org/ns#" xmlns:dc="http://purl.org/dc/elements/1.1/" xmlns:inkscape="http://www.inkscape.org/namespaces/inkscape" xmlns:rdf="http://www.w3.org/1999/02/22-rdf-syntax-ns#" xmlns:sodipodi="http://sodipodi.sourceforge.net/DTD/sodipodi-0.dtd" xmlns:svg="http://www.w3.org/2000/svg"
	 xmlns="http://www.w3.org/2000/svg" xmlns:xlink="http://www.w3.org/1999/xlink" x="0px" y="0px" viewBox="0 0 60 60"
	 style="enable-background:new 0 0 60 60;" xml:space="preserve">
<style type="text/css">
	.st0{fill:#333333;stroke:#000000;stroke-width:0.9904;stroke-opacity:0;}
	.st1{fill:#333333;stroke:#000000;stroke-opacity:0;}
	.st2{fill:#FFEC41;}
</style>
<sodipodi:namedview  bordercolor="#666666" borderopacity="1.0" fit-margin-bottom="0" fit-margin-left="0" fit-margin-right="0" fit-margin-top="0" id="base" inkscape:current-layer="layer1" inkscape:cx="56.727193" inkscape:cy="-15.981831" inkscape:document-units="px" inkscape:pageopacity="0.0" inkscape:pageshadow="2" inkscape:window-height="838" inkscape:window-maximized="1" inkscape:window-width="1600" inkscape:window-x="-8" inkscape:window-y="-8" inkscape:zoom="2.990248" pagecolor="#ffffff" showgrid="false">
	</sodipodi:namedview>
<g id="layer4" inkscape:groupmode="layer" inkscape:label="BG">
	<path id="rect4810" class="st0" d="M13,3.1h33.8c6.1,0,11,4.9,11,11v33.8c0,6.1-4.9,11-11,11H13c-6.1,0-11-4.9-11-11V14
		C2.1,8,7,3.1,13,3.1z"/>
</g>
<g id="layer3" transform="translate(0,-0.0302887)" inkscape:groupmode="layer" inkscape:label="Auge">
	
		<path id="path4805" sodipodi:cx="-65.740738" sodipodi:cy="50.715473" sodipodi:rx="13.888889" sodipodi:ry="13.425926" sodipodi:type="arc" class="st1" d="
		M35,20.8c0,2.3-1.9,4.2-4.2,4.2c-2.3,0-4.2-1.9-4.2-4.2c0,0,0,0,0,0c0-2.3,1.9-4.2,4.2-4.2S35,18.4,35,20.8z"/>
</g>
<circle class="st2" cx="29.9" cy="31.1" r="25.6"/>
<g>
	<g id="Acid_Smiley_-_tomroberts101.com_1_">
		<g id="L_Eye_1_">
			<g>
				<ellipse transform="matrix(0.1211 -0.9926 0.9926 0.1211 0.6594 44.5788)" cx="25.5" cy="21.9" rx="6.2" ry="2.3"/>
				<path d="M24.9,28.6c-0.1,0-0.1,0-0.2,0c-0.6-0.1-1.3-0.5-1.8-2.4c-0.3-1.3-0.3-2.9-0.1-4.6c0.2-1.7,0.7-3.3,1.2-4.5
					c0.9-1.7,1.7-1.9,2.3-1.9c0.6,0.1,1.3,0.5,1.8,2.4c0.3,1.3,0.3,2.9,0.1,4.6C28,24,27.6,25.5,27,26.7
					C26.2,28.2,25.4,28.6,24.9,28.6z M26.2,16.2c-0.3,0-0.8,0.4-1.3,1.4c-0.5,1.1-1,2.5-1.2,4.1c-0.2,1.6-0.2,3.1,0.1,4.3
					c0.3,1.2,0.7,1.6,1,1.7c0.3,0,0.8-0.3,1.4-1.4c0.5-1.1,1-2.5,1.2-4.1c0.2-1.6,0.2-3.1-0.1-4.3C26.9,16.7,26.5,16.2,26.2,16.2
					C26.2,16.2,26.2,16.2,26.2,16.2z"/>
			</g>
			<g>
				<path d="M24.7,28.3c-1.4-0.2-2.1-3.1-1.6-6.6c0.4-3.6,1.8-6.2,3.2-6s2.1,3.1,1.6,6.6C27.5,25.8,26.1,28.4,24.7,28.3z M26.2,15.9
					c-1.1-0.1-2.5,2.5-2.9,5.8c-0.4,3.3,0.2,6.2,1.4,6.3c1.1,0.1,2.5-2.5,2.9-5.8C28,18.9,27.4,16,26.2,15.9z"/>
				<path d="M24.9,28.7c-0.1,0-0.1,0-0.2,0c-0.9-0.1-1.5-1-1.9-2.4c-0.3-1.3-0.4-3-0.2-4.8c0.2-1.8,0.7-3.4,1.3-4.6
					c0.7-1.3,1.5-2,2.4-1.9c0.9,0.1,1.5,1,1.9,2.4c0.3,1.3,0.4,3,0.2,4.8C28,25.5,26.6,28.7,24.9,28.7z M26.2,16.3
					c-0.7,0-1.9,2.1-2.3,5.4c-0.2,1.5-0.1,3,0.1,4.2c0.2,1.1,0.6,1.6,0.9,1.6c0.6,0.1,1.9-2,2.3-5.4c0.2-1.5,0.1-3-0.1-4.2
					C26.8,16.9,26.5,16.4,26.2,16.3L26.2,16.3C26.2,16.3,26.2,16.3,26.2,16.3z"/>
			</g>
		</g>
		<g id="R_Eye_1_">
			<g>
				<ellipse transform="matrix(0.1211 -0.9926 0.9926 0.1211 9.2667 57.0732)" cx="36.9" cy="23.3" rx="6.2" ry="2.3"/>
				<path d="M36.2,30c-0.1,0-0.1,0-0.2,0c-1.8-0.2-2.3-3.8-1.9-7c0.4-3.2,1.8-6.5,3.5-6.3c1.8,0.2,2.3,3.8,1.9,7
					C39.2,26.8,37.9,30,36.2,30z M37.5,17.6c-0.7,0-2,2.1-2.5,5.5c-0.4,3.5,0.4,5.9,1.1,6c0,0,0,0,0,0c0.7,0,2-2.1,2.5-5.5l0,0
					C39.1,20,38.3,17.7,37.5,17.6C37.5,17.6,37.5,17.6,37.5,17.6z"/>
			</g>
			<g>
				<path d="M36.1,29.6c-1.4-0.2-2.1-3.1-1.6-6.6c0.4-3.6,1.8-6.2,3.2-6c1.4,0.2,2.1,3.1,1.6,6.6C38.8,27.2,37.4,29.8,36.1,29.6z
					 M37.6,17.2c-1.1-0.1-2.5,2.5-2.9,5.8c-0.4,3.3,0.2,6.2,1.4,6.3c1.1,0.1,2.5-2.5,2.9-5.8C39.4,20.3,38.8,17.4,37.6,17.2z"/>
				<path d="M36.2,30.1c-0.1,0-0.1,0-0.2,0c-0.9-0.1-1.5-1-1.9-2.4c-0.3-1.3-0.4-3-0.2-4.8c0.2-1.8,0.7-3.4,1.3-4.6
					c0.7-1.3,1.5-2,2.4-1.9c0.9,0.1,1.5,1,1.9,2.4c0.3,1.3,0.4,3,0.2,4.8C39.3,26.9,38,30.1,36.2,30.1z M37.5,17.7
					c-0.7,0-1.9,2.1-2.3,5.4c-0.2,1.5-0.1,3,0.1,4.2c0.2,1.1,0.6,1.6,0.9,1.6c0.3,0,0.8-0.4,1.2-1.4c0.5-1,0.9-2.5,1.1-4
					C38.9,20.1,38.2,17.8,37.5,17.7C37.5,17.7,37.5,17.7,37.5,17.7z"/>
			</g>
		</g>
		<g id="Mouth_1_">
			<g>
				<g>
					<path d="M43.7,33.4c0,0.4-0.1,0.7-0.2,1.1c0,0.2-0.1,0.3-0.1,0.5c0,0,0,0.1,0,0.1c0-0.1,0,0,0,0c0,0.1-0.1,0.2-0.1,0.3
						c-0.2,0.7-0.5,1.3-0.8,1.9c-0.1,0.1-0.1,0.3-0.2,0.4c0,0,0,0.1-0.1,0.1c0,0-0.1,0.2,0,0.1c0-0.1,0,0,0,0.1c0,0,0,0.1-0.1,0.1
						c-0.2,0.3-0.4,0.6-0.6,0.9c-0.2,0.3-0.4,0.5-0.6,0.8c-0.1,0.1-0.2,0.3-0.3,0.4c-0.1,0.1-0.1,0.1-0.2,0.2c0,0-0.1,0.1-0.1,0.1
						c-0.1,0.1,0,0,0,0c-0.5,0.5-1,0.9-1.5,1.3c-0.3,0.2-0.6,0.4-0.9,0.6c-0.1,0-0.1,0.1-0.2,0.1c0,0-0.1,0-0.1,0.1c0.1-0.1,0,0,0,0
						c-0.2,0.1-0.3,0.2-0.5,0.3c-0.6,0.3-1.3,0.6-1.9,0.9c-0.3,0.1-0.7,0.2-1,0.3c-0.1,0,0.1,0,0,0c0,0-0.1,0-0.1,0
						c-0.1,0-0.2,0-0.3,0.1c-0.2,0-0.4,0.1-0.5,0.1c-2.9,0.6-5.9,0.3-8.6-0.7c-0.3-0.1-0.7-0.3-1-0.4c-0.2-0.1-0.3-0.2-0.5-0.2
						c-0.1,0-0.1-0.1-0.2-0.1c0,0-0.1,0-0.1-0.1c0,0-0.2-0.1-0.1,0c-0.6-0.4-1.2-0.8-1.8-1.2c-0.3-0.2-0.5-0.4-0.8-0.7
						c-0.1-0.1-0.3-0.3-0.3-0.3c0.1,0.1-0.1-0.1-0.1-0.1c0,0-0.1-0.1-0.1-0.1c-0.1-0.1-0.1-0.1-0.2-0.2c-0.5-0.5-0.9-1-1.3-1.6
						c-0.1-0.1-0.2-0.3-0.3-0.4c0-0.1-0.1-0.1-0.1-0.2c0,0,0-0.1-0.1-0.1c-0.1-0.2,0.1,0.1,0-0.1c-0.2-0.3-0.3-0.6-0.5-0.9
						c-0.3-0.6-0.6-1.3-0.8-1.9c0-0.1,0-0.2-0.1-0.2c-0.1-0.2,0,0.1,0,0c0,0,0-0.1,0-0.1c0-0.2-0.1-0.3-0.1-0.5
						c-0.1-0.3-0.1-0.7-0.2-1c0-0.3-0.1-0.7-0.1-1c0-0.1,0-0.2,0-0.2c0,0,0-0.3,0-0.2c0-0.2,0-0.4,0-0.5c0-0.3,0-0.7,0.1-1
						c0-0.3-0.2-0.7-0.6-0.7c-0.3,0-0.7,0.2-0.7,0.6c-0.3,2.9,0.3,5.9,1.8,8.5c1.5,2.6,3.8,4.7,6.6,6c2.9,1.4,6.1,1.9,9.3,1.5
						c3-0.4,5.8-1.6,8.1-3.6c2.2-2,3.8-4.6,4.4-7.5c0.1-0.4,0.1-0.7,0.2-1.1c0-0.3-0.2-0.7-0.6-0.7C44.1,32.8,43.8,33.1,43.7,33.4
						L43.7,33.4z"/>
					<path d="M30.1,46.4c-2.5,0-5.1-0.6-7.3-1.7c-2.9-1.4-5.2-3.5-6.8-6.2c-1.6-2.6-2.2-5.7-1.8-8.7c0-0.3,0.2-0.5,0.4-0.7
						c0.2-0.2,0.5-0.3,0.8-0.2c0.6,0.1,1,0.6,1,1.2c0,0.3-0.1,0.7-0.1,1c0,0.2,0,0.3,0,0.5l0,0c0,0,0,0,0,0h0c0,0,0,0.1,0,0.1l0,0.1
						c0,0.1,0,0.2,0,0.2c0,0.3,0,0.7,0.1,1c0,0.3,0.1,0.7,0.2,1c0,0.2,0.1,0.3,0.1,0.5l0.1,0.4c0.2,0.6,0.4,1.2,0.7,1.8
						c0.1,0.3,0.3,0.5,0.5,0.9c0,0,0,0,0,0c0,0,0,0,0,0l0.2,0.3c0.1,0.1,0.2,0.3,0.3,0.4c0.4,0.5,0.8,1.1,1.3,1.6
						c0.1,0.1,0.1,0.1,0.2,0.2l0.1,0.1c0,0,0,0,0,0l0,0c0,0,0.2,0.2,0.3,0.3c0.2,0.2,0.5,0.4,0.8,0.6c0.5,0.4,1.1,0.8,1.7,1.1
						c0,0,0.1,0,0.1,0.1l0.3,0.2c0.2,0.1,0.3,0.2,0.5,0.2c0.3,0.2,0.6,0.3,1,0.4c2.7,1.1,5.6,1.3,8.4,0.7c0.2,0,0.4-0.1,0.5-0.1
						c0.1,0,0.2,0,0.3-0.1l0.1,0c0,0,0,0,0,0l0,0c0.3-0.1,0.7-0.2,1-0.3c0.6-0.2,1.3-0.5,1.9-0.8c0.2-0.1,0.3-0.2,0.5-0.3
						c0,0,0,0,0,0l0.1-0.1c0.1,0,0.1-0.1,0.2-0.1c0.3-0.2,0.6-0.4,0.9-0.6c0.5-0.4,1-0.8,1.5-1.3l0.1-0.1c0-0.1,0.1-0.1,0.2-0.2
						c0.1-0.1,0.2-0.2,0.3-0.4c0.2-0.2,0.4-0.5,0.6-0.8c0.2-0.3,0.4-0.6,0.6-0.9l0.1-0.2c0,0,0,0,0,0l0-0.1l0,0l0.1-0.1
						c0.1-0.1,0.1-0.3,0.2-0.4c0.3-0.6,0.5-1.2,0.7-1.9L43,35c0,0,0,0,0,0l0-0.1c0-0.2,0.1-0.3,0.1-0.5c0.1-0.3,0.1-0.7,0.2-1l0,0
						c0-0.3,0.2-0.5,0.4-0.7c0.2-0.2,0.5-0.3,0.8-0.2c0.6,0.1,1,0.6,1,1.2c0,0.4-0.1,0.8-0.2,1.1c-0.6,2.9-2.2,5.7-4.6,7.7
						c-2.3,2-5.2,3.3-8.3,3.7C31.6,46.4,30.9,46.4,30.1,46.4z M15.3,29.8c0,0-0.1,0-0.1,0c0,0-0.1,0.1-0.1,0.1
						c-0.3,2.8,0.3,5.7,1.7,8.2c1.5,2.5,3.7,4.5,6.4,5.8c2.8,1.3,6,1.8,9,1.4c2.9-0.4,5.7-1.6,7.9-3.5c2.2-1.9,3.7-4.5,4.3-7.2
						c0.1-0.3,0.1-0.7,0.2-1c0-0.1-0.1-0.2-0.2-0.2c0,0-0.1,0-0.1,0c0,0-0.1,0.1-0.1,0.1l0,0c0,0.4-0.1,0.7-0.2,1.1
						c0,0.2-0.1,0.3-0.1,0.5l0,0.1c0,0,0,0,0,0l0,0l-0.1,0.3c-0.2,0.7-0.5,1.4-0.8,2c0,0.1-0.1,0.1-0.1,0.2l0,0l-0.4,0.7l0,0l0,0.1
						l0,0c-0.2,0.2-0.3,0.5-0.5,0.7c-0.2,0.3-0.4,0.6-0.6,0.8c-0.1,0.1-0.2,0.2-0.3,0.4l0,0l-0.7,0.7l0,0c-0.4,0.4-0.8,0.7-1.3,1.1
						c-0.3,0.2-0.6,0.4-0.9,0.6c-0.1,0-0.1,0.1-0.2,0.1L37.8,43c0,0,0,0,0,0v0l0,0c-0.2,0.1-0.3,0.2-0.5,0.3c-0.6,0.3-1.3,0.6-2,0.9
						c-0.2,0.1-0.4,0.1-0.6,0.2l0,0l-0.5,0.1c0,0,0,0,0,0l-0.1,0c-0.1,0-0.2,0-0.3,0.1c-0.2,0-0.4,0.1-0.6,0.1
						c-3,0.6-6.1,0.4-8.9-0.8c-0.4-0.1-0.7-0.3-1-0.5c-0.2-0.1-0.3-0.2-0.5-0.2l-0.4-0.2l0,0l0,0L22.2,43c-0.6-0.3-1.1-0.7-1.6-1.1
						c-0.3-0.2-0.5-0.4-0.8-0.7l0,0l-0.1-0.1l0,0l-0.4-0.4c-0.1-0.1-0.1-0.1-0.2-0.2c-0.5-0.5-1-1.1-1.4-1.7
						c-0.1-0.1-0.2-0.2-0.2-0.4l0,0l-0.3-0.4c0,0,0,0,0-0.1c-0.2-0.3-0.3-0.6-0.5-0.9c-0.3-0.6-0.5-1.2-0.7-1.8l0,0l-0.3-0.9l0,0
						c0-0.1,0-0.1,0-0.2c-0.1-0.3-0.1-0.7-0.2-1.1c0-0.4-0.1-0.7-0.1-1.1c0-0.1,0-0.2,0-0.2l0-0.2c0,0,0,0,0,0l0-0.5l0,0
						c0,0,0-0.1,0-0.1c0-0.3,0-0.7,0.1-1.1C15.5,29.9,15.4,29.8,15.3,29.8C15.3,29.8,15.3,29.8,15.3,29.8z M43,35
						c0,0.2,0.1,0.5,0.3,0.5l0.1-0.4L43,35z"/>
				</g>
			</g>
		</g>
		<g id="L_Dimple_1_">
			<g>
				<g>
					<path d="M14.1,30.7C13.8,30.8,14.1,30.7,14.1,30.7c0.2-0.1,0.2-0.1,0.3-0.1c0.2-0.1-0.1,0,0,0c0.1,0,0.1,0,0.2,0
						c0.6-0.1,1.2-0.1,1.8,0.2c0.3,0.1,0.6,0,0.7-0.3c0.1-0.3,0-0.6-0.3-0.7c-1.1-0.4-2.5-0.5-3.5,0.2c-0.3,0.2-0.3,0.6-0.1,0.8
						C13.5,30.8,13.8,30.8,14.1,30.7L14.1,30.7z"/>
					<path d="M13.7,31.2c-0.3,0-0.6-0.1-0.8-0.4c-0.2-0.2-0.3-0.5-0.2-0.8c0-0.3,0.2-0.5,0.4-0.6c1-0.7,2.5-0.7,3.9-0.2
						c0.3,0.1,0.5,0.3,0.6,0.5c0.1,0.3,0.1,0.6,0,0.8c-0.2,0.5-0.8,0.8-1.3,0.6c-0.6-0.2-1.1-0.3-1.6-0.2l-0.1,0
						c-0.1,0-0.1,0-0.2,0.1c0,0-0.1,0-0.1,0c-0.1,0-0.1,0.1-0.2,0.1C13.9,31.2,13.8,31.2,13.7,31.2z M15.1,29.8
						c-0.6,0-1.1,0.1-1.5,0.4c0,0,0,0.1,0,0.1c0.1,0.1,0.1,0,0.2,0l0,0c0,0,0,0,0,0l0-0.1l0.9-0.2l0,0c0.6-0.1,1.2,0,1.9,0.2
						c0.1,0,0.1,0,0.2-0.1c0,0,0-0.1,0-0.1c0,0,0,0,0,0C16.2,29.9,15.6,29.8,15.1,29.8z"/>
				</g>
			</g>
		</g>
		<g id="R_Dimple_1_">
			<g>
				<g>
					<path d="M46.2,33.6c-0.8-0.9-2.2-1.1-3.4-1c-0.7,0.1-0.6,1.2,0.2,1.1c0.7-0.1,1.3,0,1.8,0.3c0.1,0,0.1,0.1,0.2,0.1
						c0.1,0-0.1-0.1,0,0c0.1,0,0.1,0.1,0.2,0.1c0.1,0.1,0.3,0.2,0.1,0.1c0.2,0.2,0.5,0.3,0.8,0.1C46.4,34.2,46.4,33.8,46.2,33.6
						L46.2,33.6z"/>
					<path d="M45.8,35c-0.2,0-0.4-0.1-0.6-0.2c-0.1,0-0.1-0.1-0.2-0.1c0,0-0.1-0.1-0.1-0.1c-0.1,0-0.1-0.1-0.2-0.1c0,0,0,0,0,0
						l-0.1-0.1c-0.5-0.2-1-0.3-1.6-0.2c-0.6,0.1-1.1-0.3-1.1-0.9c-0.1-0.6,0.3-1,0.9-1.1c0.7-0.1,2.5-0.1,3.8,1.1h0
						c0.2,0.2,0.3,0.4,0.3,0.7c0,0.3-0.2,0.6-0.4,0.8C46.2,34.9,46,35,45.8,35z M45.6,34l-0.1,0.1L45.6,34C45.6,34,45.6,34,45.6,34z
						 M45.7,34c0,0,0.1,0.1,0.2,0.1c0,0,0-0.1,0-0.1c-0.6-0.7-1.8-1-3-0.8c0,0-0.1,0-0.1,0.1c0,0.1,0.1,0.1,0.1,0.1
						c0.7-0.1,1.3,0,1.9,0.2l0,0L45.7,34L45.7,34C45.6,34,45.6,34,45.7,34L45.7,34z"/>
				</g>
			</g>
		</g>
	</g>
	<g>
		<g>
			<path d="M27.3,52.6c-11.8-1.4-20.2-12.2-18.8-24s12.2-20.2,24-18.8s20.2,12.2,18.8,24C49.9,45.6,39.1,54,27.3,52.6z M32.4,10.9
				C21.2,9.5,11,17.5,9.6,28.7C8.3,39.8,16.3,50,27.4,51.4s21.4-6.6,22.7-17.8C51.5,22.4,43.5,12.3,32.4,10.9z"/>
			<path d="M29.9,53.4c-0.9,0-1.8-0.1-2.7-0.2l0,0c-5.9-0.7-11.2-3.7-14.8-8.4c-3.7-4.7-5.3-10.5-4.6-16.4C9.3,16.3,20.4,7.6,32.6,9
				c5.9,0.7,11.2,3.7,14.8,8.4c3.7,4.7,5.3,10.5,4.6,16.4c-0.7,5.9-3.7,11.2-8.4,14.8C39.7,51.8,34.9,53.4,29.9,53.4z M29.9,11.4
				c-9.8,0-18.3,7.3-19.6,17.3c-0.6,5.2,0.8,10.4,4,14.5s7.9,6.8,13.1,7.4c10.8,1.3,20.6-6.4,22-17.2c0.6-5.2-0.8-10.4-4-14.5
				c-3.2-4.2-7.9-6.8-13.1-7.4C31.5,11.5,30.7,11.4,29.9,11.4z"/>
		</g>
	</g>
</g>
</svg>
