<?xml version="1.0" encoding="UTF-8" standalone="no"?>
<svg
   xmlns:dc="http://purl.org/dc/elements/1.1/"
   xmlns:cc="http://creativecommons.org/ns#"
   xmlns:rdf="http://www.w3.org/1999/02/22-rdf-syntax-ns#"
   xmlns:svg="http://www.w3.org/2000/svg"
   xmlns="http://www.w3.org/2000/svg"
   xmlns:sodipodi="http://sodipodi.sourceforge.net/DTD/sodipodi-0.dtd"
   xmlns:inkscape="http://www.inkscape.org/namespaces/inkscape"
   version="1.1"
   id="svg10"
   width="64"
   height="64"
   viewBox="0 0 64 64"
   sodipodi:docname="pill.svg"
   inkscape:version="1.0.1 (3bc2e813f5, 2020-09-07)">
  <metadata
     id="metadata16">
    <rdf:RDF>
      <cc:Work
         rdf:about="">
        <dc:format>image/svg+xml</dc:format>
        <dc:type
           rdf:resource="http://purl.org/dc/dcmitype/StillImage" />
        <dc:title></dc:title>
      </cc:Work>
    </rdf:RDF>
  </metadata>
  <defs
     id="defs14" />
  <sodipodi:namedview
     pagecolor="#ffffff"
     bordercolor="#666666"
     borderopacity="1"
     objecttolerance="10"
     gridtolerance="10"
     guidetolerance="10"
     inkscape:pageopacity="0"
     inkscape:pageshadow="2"
     inkscape:window-width="1920"
     inkscape:window-height="1027"
     id="namedview12"
     showgrid="false"
     inkscape:zoom="3.359375"
     inkscape:cx="93.655604"
     inkscape:cy="50.172774"
     inkscape:window-x="980"
     inkscape:window-y="1120"
     inkscape:window-maximized="1"
     inkscape:current-layer="g18" />
  <g
     inkscape:groupmode="layer"
     inkscape:label="Image"
     id="g18">
    <g
       inkscape:groupmode="layer"
       id="layer1"
       inkscape:label="Image 1" />
    <g
       inkscape:groupmode="layer"
       id="layer2"
       inkscape:label="Image 2" />
    <path
       style="fill:#ffffff;stroke-width:0.161219"
       d="m 29.555537,44.886366 c -5.970499,-1.258121 -10.219524,-6.415676 -10.21552,-12.3998 0.0037,-5.510895 3.419325,-10.277059 8.632552,-12.045825 8.330258,-2.826323 16.994177,3.269895 16.985077,11.951256 -0.0038,3.424872 -1.089237,6.178173 -3.401595,8.62675 -3.124584,3.308648 -7.682338,4.777556 -12.000514,3.867619 z M 34.096269,43.4622 c 5.704756,-1.022974 9.72803,-6.076621 9.351223,-11.74608 -0.409276,-6.157947 -5.603974,-10.729748 -11.842947,-10.422867 -2.946708,0.144942 -5.378791,1.194164 -7.420139,3.201113 -3.516357,3.457106 -4.340884,8.438904 -2.141433,12.938535 0.624282,1.277153 0.960028,1.730242 2.139937,2.887851 1.856192,1.821111 3.469244,2.671249 5.940217,3.130718 1.480276,0.275252 2.482897,0.27796 3.973142,0.01069 z m -4.326015,-2.654263 c -1.374472,-0.356074 -1.907189,-0.608967 -3.225577,-1.531256 -1.955905,-1.368272 -3.475904,-4.036322 -3.475904,-6.101246 0,-0.584202 -0.05187,-0.688286 -0.364881,-0.732223 -0.258614,-0.03631 -0.379519,-0.17644 -0.415143,-0.481196 -0.06538,-0.559344 0.431541,-0.833098 1.486805,-0.819079 0.98893,0.01316 1.541511,0.450455 1.249822,0.989117 -0.10129,0.187043 -0.301187,0.340081 -0.444226,0.340081 -0.462238,0 -0.17841,1.770875 0.50186,3.131243 1.912092,3.823703 6.965457,5.360157 10.993857,3.342641 1.141112,-0.571497 2.6375,-2.084874 3.145212,-3.180924 0.226448,-0.488848 0.477057,-0.888813 0.556911,-0.888813 0.221584,0 -0.02866,-0.53404 -0.361001,-0.770401 -0.35814,-0.254715 -0.38148,-0.721748 -0.04967,-0.993914 0.503029,-0.412604 2.215993,0.110999 2.465504,0.753641 0.129217,0.332802 -0.160666,0.769949 -0.511563,0.771447 -0.189892,7.5e-4 -0.375488,0.273604 -0.583687,0.857904 -0.931753,2.614936 -3.585725,4.859825 -6.447577,5.453754 -1.264352,0.262398 -3.19675,0.202222 -4.520745,-0.140774 z m 5.338863,-9.337529 c -1.090329,-1.152909 -0.792288,-5.23547 0.494872,-6.778794 0.384862,-0.461454 0.57113,-0.561958 0.968428,-0.522529 1.231017,0.122166 1.672792,2.213076 1.060085,5.017384 -0.476529,2.181074 -1.631793,3.226708 -2.523385,2.283939 z m -6.66877,-0.852731 c -0.971106,-1.220154 -0.494478,-5.704987 0.735492,-6.920601 0.574216,-0.567515 1.318718,-0.448237 1.75025,0.28041 0.459176,0.77533 0.477216,3.650682 0.03136,4.992626 -0.610127,1.836214 -1.765185,2.592267 -2.517065,1.647565 z"
       id="path36" />
  </g>
</svg>
