<?xml version="1.0" encoding="utf-8"?>
<!-- Generator: Adobe Illustrator 24.3.0, SVG Export Plug-In . SVG Version: 6.00 Build 0)  -->
<svg version="1.1"
	 id="svg3209" inkscape:version="0.48.2 r9819" sodipodi:docname="blinky.svg" xmlns:cc="http://creativecommons.org/ns#" xmlns:dc="http://purl.org/dc/elements/1.1/" xmlns:inkscape="http://www.inkscape.org/namespaces/inkscape" xmlns:rdf="http://www.w3.org/1999/02/22-rdf-syntax-ns#" xmlns:sodipodi="http://sodipodi.sourceforge.net/DTD/sodipodi-0.dtd" xmlns:svg="http://www.w3.org/2000/svg"
	 xmlns="http://www.w3.org/2000/svg" xmlns:xlink="http://www.w3.org/1999/xlink" x="0px" y="0px" viewBox="0 0 60 60"
	 style="enable-background:new 0 0 60 60;" xml:space="preserve">
<style type="text/css">
	.st0{fill:#1B1B6D;}
	.st1{fill:#FFFFFF;}
	.st2{fill:none;stroke:#000000;}
	.st3{fill:#FFDC00;}
</style>
<sodipodi:namedview  bordercolor="#666666" borderopacity="1.0" fit-margin-bottom="0" fit-margin-left="0" fit-margin-right="0" fit-margin-top="0" id="base" inkscape:current-layer="layer1" inkscape:cx="56.727193" inkscape:cy="-15.981831" inkscape:document-units="px" inkscape:pageopacity="0.0" inkscape:pageshadow="2" inkscape:window-height="838" inkscape:window-maximized="1" inkscape:window-width="1600" inkscape:window-x="-8" inkscape:window-y="-8" inkscape:zoom="2.990248" pagecolor="#ffffff" showgrid="false">
	</sodipodi:namedview>
<g id="layer1" transform="translate(-620.1475,-462.09155)" inkscape:groupmode="layer" inkscape:label="Ebene 1">
	<path id="Blinky" inkscape:connector-curvature="0" inkscape:label="#Blinky" class="st0" d="M627.9,519.4c-1-1.4-1.2-3.9-1.2-11.3
		c0-17.3,1.7-23.7,7.8-29.1c4.1-3.7,8-5,15.3-5c5.1,0,6.7,0.4,10.7,2.4c8.8,4.5,10.8,9.5,11.3,29.4c0.3,11.2,0.2,12-1.3,13.4
		c-2.1,1.9-4.4,1.3-8.5-2.3c-1.8-1.5-3.6-2.8-4-2.8c-0.4,0-2.1,1.4-3.8,3.2c-1.7,1.7-3.7,3.2-4.4,3.2c-0.7,0-3.1-1.4-5.2-3.2
		c-4.3-3.5-5.2-3.8-6.7-1.9c-1.3,1.6-7,5.8-7.9,5.8C629.4,521.1,628.6,520.3,627.9,519.4L627.9,519.4z M650.8,499.6
		c1-0.5,2.3-1.6,3-2.5c1.3-1.6,1.3-1.6,3.3,0.5c2.8,2.8,5.7,3.4,9,1.8c3.2-1.5,3.7-4.2,0.9-4.6c-2-0.3-2.9-2.8-1.3-3.4
		c3.8-1.2,3.9-1.2,3.1-2.7c-1.1-2-5.1-3.6-7.7-3c-1.1,0.3-3,1.4-4.1,2.5l-2,2l-1.8-2c-3.6-3.9-9.6-3.3-11.9,1.2
		c-1.4,2.7-1.4,4.5,0,7C643.2,499.9,647.4,501.3,650.8,499.6L650.8,499.6z M650,493.8c-0.6-1.6,0.3-2.8,2.1-2.8c1.1,0,1.5,0.5,1.5,2
		c0,1.5-0.4,2-1.6,2C651.2,494.9,650.3,494.4,650,493.8z"/>
	
		<path id="path3004" sodipodi:cx="498.92856" sodipodi:cy="598.61218" sodipodi:rx="8.9285717" sodipodi:ry="9.4642859" sodipodi:type="arc" class="st1" d="
		M670.4,493c0,4.2-3.6,7.7-7.9,7.7s-7.9-3.4-7.9-7.7c0-4.2,3.6-7.7,7.9-7.7S670.4,488.8,670.4,493z"/>
	
		<path id="path3004-1" sodipodi:cx="498.92856" sodipodi:cy="598.61218" sodipodi:rx="8.9285717" sodipodi:ry="9.4642859" sodipodi:type="arc" class="st1" d="
		M655.9,492.8c0,4.2-3.6,7.7-7.9,7.7c-4.4,0-7.9-3.4-7.9-7.7c0-4.2,3.6-7.7,7.9-7.7C652.4,485.2,655.9,488.6,655.9,492.8z"/>
	
		<path id="path3023" sodipodi:argument="-18.782988" sodipodi:cx="-171.42857" sodipodi:cy="90.714287" sodipodi:expansion="1" sodipodi:radius="10.738069" sodipodi:revolution="3" sodipodi:t0="0" sodipodi:type="spiral" class="st2" d="
		M647.6,493.7c0.4,0,0.1,0.5,0,0.6c-0.5,0.3-1-0.2-1.2-0.7c-0.2-0.9,0.5-1.7,1.3-1.8c1.2-0.2,2.2,0.9,2.3,2c0.1,1.6-1.1,2.9-2.6,3
		c-1.8,0.1-3.3-1.5-3.4-3.4c-0.1-2.3,1.8-4.1,3.9-4.1c2.5-0.1,4.5,2.2,4.5,4.7c0,2.9-2.4,5.3-5.1,5.3c-3.1,0-5.6-2.8-5.6-6
		c0-3.6,3-6.5,6.4-6.5c3.8,0,6.8,3.5,6.7,7.4"/>
	
		<path id="path3023-1" sodipodi:argument="-18.782988" sodipodi:cx="-171.42857" sodipodi:cy="90.714287" sodipodi:expansion="1" sodipodi:radius="10.738069" sodipodi:revolution="3" sodipodi:t0="0" sodipodi:type="spiral" class="st2" d="
		M661.9,493.6c0.4,0,0.1,0.5,0,0.6c-0.5,0.3-1-0.2-1.2-0.7c-0.2-0.9,0.5-1.7,1.3-1.8c1.2-0.2,2.2,0.9,2.3,2c0.1,1.6-1.1,2.9-2.6,3
		c-1.8,0.1-3.3-1.5-3.4-3.4c-0.1-2.3,1.8-4.1,3.9-4.1c2.5-0.1,4.5,2.2,4.5,4.7c0,2.9-2.4,5.3-5.1,5.3c-3.1,0-5.6-2.8-5.6-6
		c0-3.6,3-6.5,6.4-6.5c3.8,0,6.8,3.5,6.7,7.4"/>
</g>
<polygon points="14.3,16.8 55.8,13.2 40.4,11.8 42.4,4.8 29.7,1.1 10,11.8 "/>
<polygon class="st3" points="32.8,3.5 33.8,6.8 37.2,6.8 34.5,8.8 35.5,12 32.8,10 30,12 31.1,8.8 28.3,6.8 31.7,6.8 "/>
</svg>
