<?xml version="1.0" encoding="UTF-8" standalone="no"?>
<svg
   xmlns:dc="http://purl.org/dc/elements/1.1/"
   xmlns:cc="http://creativecommons.org/ns#"
   xmlns:rdf="http://www.w3.org/1999/02/22-rdf-syntax-ns#"
   xmlns:svg="http://www.w3.org/2000/svg"
   xmlns="http://www.w3.org/2000/svg"
   xmlns:sodipodi="http://sodipodi.sourceforge.net/DTD/sodipodi-0.dtd"
   xmlns:inkscape="http://www.inkscape.org/namespaces/inkscape"
   version="1.1"
   id="svg10"
   width="64"
   height="64"
   viewBox="0 0 64 64"
   sodipodi:docname="superpill.svg"
   inkscape:version="1.0.1 (3bc2e813f5, 2020-09-07)">
  <metadata
     id="metadata16">
    <rdf:RDF>
      <cc:Work
         rdf:about="">
        <dc:format>image/svg+xml</dc:format>
        <dc:type
           rdf:resource="http://purl.org/dc/dcmitype/StillImage" />
        <dc:title></dc:title>
      </cc:Work>
    </rdf:RDF>
  </metadata>
  <defs
     id="defs14" />
  <sodipodi:namedview
     pagecolor="#ffffff"
     bordercolor="#666666"
     borderopacity="1"
     objecttolerance="10"
     gridtolerance="10"
     guidetolerance="10"
     inkscape:pageopacity="0"
     inkscape:pageshadow="2"
     inkscape:window-width="1920"
     inkscape:window-height="1027"
     id="namedview12"
     showgrid="false"
     inkscape:zoom="3.359375"
     inkscape:cx="93.655604"
     inkscape:cy="50.172774"
     inkscape:window-x="980"
     inkscape:window-y="1120"
     inkscape:window-maximized="1"
     inkscape:current-layer="g18" />
  <g
     inkscape:groupmode="layer"
     inkscape:label="Image"
     id="g18">
    <g
       inkscape:groupmode="layer"
       id="layer1"
       inkscape:label="Image 1" />
    <g
       inkscape:groupmode="layer"
       id="layer2"
       inkscape:label="Image 2" />
    <path
       style="fill:#00ff00;stroke-width:0.206179"
       d="m 28.832325,48.355563 c -7.635538,-1.608983 -13.069521,-8.204864 -13.0644,-15.857826 0.0047,-7.047761 4.372898,-13.143101 11.039977,-15.405136 10.653381,-3.614522 21.733473,4.181795 21.721835,15.284193 -0.0049,4.379993 -1.393001,7.901128 -4.350224,11.032558 -3.99596,4.231356 -9.82477,6.109909 -15.347188,4.946211 z m 5.80704,-1.821334 c 7.295685,-1.308258 12.44096,-7.771254 11.95907,-15.021799 -0.523414,-7.87526 -7.166797,-13.722034 -15.14568,-13.329571 -3.768479,0.185363 -6.878815,1.52719 -9.48945,4.093832 -4.49699,4.421215 -5.551459,10.792325 -2.73863,16.546803 0.79838,1.633322 1.227758,2.212767 2.736717,3.693208 2.373843,2.328978 4.436739,3.4162 7.596811,4.003805 1.893092,0.352013 3.175321,0.355477 5.081162,0.01367 z M 29.106921,43.139752 C 27.34914,42.684377 26.66786,42.360957 24.981803,41.181463 22.48044,39.43161 20.536547,36.019501 20.536547,33.378716 c 0,-0.747123 -0.06633,-0.880234 -0.466638,-0.936424 -0.330735,-0.04644 -0.485358,-0.225645 -0.530917,-0.615391 -0.08361,-0.715332 0.551888,-1.06543 1.901442,-1.047501 1.26472,0.01683 1.971404,0.576076 1.598369,1.264959 -0.129537,0.239205 -0.385181,0.434922 -0.568111,0.434922 -0.591145,0 -0.228164,2.264732 0.641818,4.004477 2.445332,4.890048 8.907967,6.854984 14.059798,4.274828 1.459342,-0.730874 3.373039,-2.666298 4.022341,-4.068012 0.289599,-0.625177 0.610097,-1.136683 0.712221,-1.136683 0.283379,0 -0.03665,-0.682972 -0.461676,-0.985249 -0.458018,-0.325749 -0.487867,-0.923027 -0.06352,-1.271094 0.643312,-0.52767 2.833984,0.141954 3.153078,0.963814 0.165252,0.425614 -0.205472,0.984671 -0.654227,0.986587 -0.242848,9.59e-4 -0.480203,0.349906 -0.746464,1.097154 -1.191598,3.344183 -4.585703,6.215121 -8.245662,6.974684 -1.616951,0.335575 -4.088252,0.258617 -5.781479,-0.180033 z m 6.827753,-11.941557 c -1.394398,-1.47443 -1.01324,-6.695526 0.63288,-8.669248 0.492192,-0.590143 0.730406,-0.718676 1.238501,-0.668251 1.57432,0.156236 2.139297,2.830254 1.355719,6.41662 -0.609422,2.789327 -2.086863,4.126565 -3.2271,2.920879 z m -8.528541,-1.090539 c -1.241926,-1.560427 -0.632377,-7.29598 0.940604,-8.850601 0.734352,-0.725783 1.686479,-0.573241 2.238356,0.35861 0.58723,0.991552 0.610301,4.668775 0.04011,6.384957 -0.780277,2.348293 -2.257455,3.315192 -3.219018,2.107034 z"
       id="path36" />
  </g>
</svg>
